<?xml version="1.0" encoding="UTF-8"?>
<!DOCTYPE svg PUBLIC "-//W3C//DTD SVG 1.1//EN" "http://www.w3.org/Graphics/SVG/1.1/DTD/svg11.dtd">
<!-- Creator: CorelDRAW 2018 (64 Bit) -->
<svg xmlns="http://www.w3.org/2000/svg" xml:space="preserve" width="38.5715mm" height="38.5715mm" version="1.1" style="shape-rendering:geometricPrecision; text-rendering:geometricPrecision; image-rendering:optimizeQuality; fill-rule:evenodd; clip-rule:evenodd"
viewBox="0 0 6377.14 6377.14"
 xmlns:xlink="http://www.w3.org/1999/xlink">
 <defs>
  <style type="text/css">
   <![CDATA[
    .str0 {stroke:#D2D3D5;stroke-width:49.6;stroke-miterlimit:22.9256}
    .fil6 {fill:none}
    .fil5 {fill:#96989A}
    .fil7 {fill:#2770B5}
    .fil0 {fill:#B4B4B4}
    .fil4 {fill:#FEFEFE;fill-rule:nonzero}
    .fil2 {fill:url(#id1)}
    .fil1 {fill:url(#id2)}
    .fil3 {fill:url(#id3)}
   ]]>
  </style>
   <clipPath id="id0">
    <path d="M1275.53 3262.56c-191.06,0 -347.38,-168.04 -347.38,-373.42l0 0c0,-205.39 156.32,-373.42 347.38,-373.42l1490.99 0c32.21,-51.48 86.9,-85.34 148.93,-85.34 99.07,0 179.35,86.32 179.35,192.79 0,106.47 -80.29,192.79 -179.35,192.79 -62.43,0 -117.4,-34.31 -149.53,-86.32l-1487.2 0c-81.61,0 -148.39,71.77 -148.39,159.5l0 0c0,87.73 66.78,159.5 148.39,159.5 404.22,0 808.46,2.48 1210.15,2.48 191.06,0 347.38,168.04 347.38,373.42l0 0c0,205.39 -156.32,373.42 -347.38,373.42l-1490.99 0c-32.21,51.48 -86.9,85.36 -148.93,85.36 -99.07,0 -179.35,-86.32 -179.35,-192.81 0,-106.47 80.29,-192.79 179.35,-192.79 62.43,0 117.4,34.31 149.53,86.34l1487.2 0c81.61,0 148.39,-71.79 148.39,-159.51l0 0c0,-87.73 -66.78,-159.5 -148.39,-159.5 -405.02,0 -807.14,-2.48 -1210.15,-2.48z"/>
   </clipPath>
  <linearGradient id="id1" gradientUnits="userSpaceOnUse" x1="4367.73" y1="5893.72" x2="2009.41" y2="483.42">
   <stop offset="0" style="stop-opacity:1; stop-color:#2C5486"/>
   <stop offset="1" style="stop-opacity:1; stop-color:#2770B5"/>
  </linearGradient>
  <linearGradient id="id2" gradientUnits="userSpaceOnUse" x1="3308.23" y1="77.59" x2="3068.91" y2="6299.53">
   <stop offset="0" style="stop-opacity:1; stop-color:#FEFEFE"/>
   <stop offset="1" style="stop-opacity:1; stop-color:#D6D8D3"/>
  </linearGradient>
  <linearGradient id="id3" gradientUnits="userSpaceOnUse" xlink:href="#id1" x1="3261.24" y1="426.67" x2="3115.88" y2="5950.46">
  </linearGradient>
 </defs>
 <g id="Capa_x0020_1">
  <metadata id="CorelCorpID_0Corel-Layer"/>
  <path class="fil0" d="M3188.58 0c1760.99,0 3188.56,1427.57 3188.56,3188.56 0,1761.01 -1427.57,3188.58 -3188.56,3188.58 -1761.01,0 -3188.58,-1427.57 -3188.58,-3188.58 0,-1760.99 1427.57,-3188.56 3188.58,-3188.56z"/>
  <path class="fil1 str0" d="M3188.58 75.31c1719.41,0 3113.25,1393.84 3113.25,3113.25 0,1719.43 -1393.84,3113.27 -3113.25,3113.27 -1719.43,0 -3113.27,-1393.84 -3113.27,-3113.27 0,-1719.41 1393.84,-3113.25 3113.27,-3113.25z"/>
  <path class="fil2" d="M3188.58 237.58c1629.79,0 2950.96,1321.19 2950.96,2950.98 0,1629.79 -1321.18,2950.98 -2950.96,2950.98 -1629.8,0 -2950.98,-1321.19 -2950.98,-2950.98 0,-1629.79 1321.18,-2950.98 2950.98,-2950.98z"/>
  <path class="fil3" d="M3188.56 425.72c1525.89,0 2762.86,1236.95 2762.86,2762.84 0,1525.89 -1236.97,2762.84 -2762.86,2762.84 -1525.87,0 -2762.84,-1236.95 -2762.84,-2762.84 0,-1525.89 1236.97,-2762.84 2762.84,-2762.84z"/>
  <path class="fil4" d="M3038.7 2885.46c36.42,13.24 62.84,49.75 63.95,93.08 3.26,-3.85 6.58,-7.62 10.02,-11.31l-0.2 -0.2c53.47,-57.47 127.32,-93.18 208.63,-93.18l1013.16 0c52,0 94.16,45.33 94.16,101.22l0 9.74 6.65 -7.37c56.58,-60.83 134.71,-98.6 220.74,-98.6l779.28 0c85.56,0 163.6,37.76 220.36,98.6l0.53 0.58c56.49,60.99 91.56,144.78 91.56,236.67l0 463.4c10.43,12.23 19.58,25.73 27.23,40.24 17.13,32.49 26.92,69.62 26.92,108.74 0,60.73 -23.01,115.82 -60.2,155.79l-0.18 0.18 0.18 0.21c-37.18,39.98 -88.57,64.69 -145.28,64.69 -56.73,0 -108.11,-24.73 -145.28,-64.71 -2.33,-2.48 -4.5,-5.08 -6.53,-7.75 -33.35,-39.4 -53.67,-91.51 -53.67,-148.42 0,-31.43 6.45,-61.9 18.07,-89.87 5.27,-12.66 11.62,-24.7 18.95,-35.99l0 -48.84 -764.63 0 0 136.45c0,55.88 -42.16,101.22 -94.14,101.22l-131.46 0c-48.87,0 -89.05,-40.06 -93.69,-91.3l-3.55 3.9c-2.05,2.18 -4.15,4.25 -6.33,6.2 -53.09,53.85 -124.38,86.97 -202.28,86.97l-810.54 0c-80.88,0 -154.6,-35.66 -208.27,-93.17l-0.56 -0.61c-3.34,-3.6 -6.58,-7.31 -9.77,-11.08 -2.98,53.01 -43.91,95.02 -93.96,95.02l-127.42 0c-51.98,0 -94.12,-45.32 -94.12,-101.2l0 -10.75c-78.68,77.62 -183.45,125.17 -298.13,125.17l-1447.75 0c-18.78,19.97 -40.26,37.07 -63.8,50.54 -38.75,22.19 -82.48,34.82 -128.38,34.82 -75.08,0 -143.33,-32.9 -193.01,-86.14l-0.58 -0.63c-49.38,-53.39 -79.91,-126.64 -79.91,-207.26 0,-80.68 30.6,-154.09 80.12,-207.48l0.58 -0.61c49.67,-53.1 117.82,-85.92 192.79,-85.92 46.43,0 90.45,12.71 129.22,35.08 23.64,13.66 45.22,30.98 64.05,51.25l1443.47 0c14.81,0 28.39,-6.58 38.22,-17.19 9.87,-10.6 16.02,-25.16 16.02,-41.1 0,-15.91 -6.15,-30.49 -16.02,-41.09 -9.84,-10.6 -23.41,-17.19 -38.22,-17.19 -71.77,0 -340.82,-0.84 -606.57,-1.65 -137.46,-0.41 -277.56,-0.84 -603.56,-0.84 -121.52,0 -231.95,-53.37 -311.92,-139.34 -79.97,-85.97 -129.62,-204.65 -129.62,-335.28 0,-130.63 49.65,-249.31 129.62,-335.26 79.97,-85.99 190.38,-139.36 311.92,-139.36l1447.74 0c18.78,-19.99 40.28,-37.07 63.8,-50.56 38.75,-22.19 82.5,-34.79 128.38,-34.79 75.06,0 143.34,32.88 193.01,86.12l0.56 0.63c49.4,53.37 79.92,126.66 79.92,207.24 0,80.7 -30.6,154.09 -80.12,207.48l-0.6 0.61c-20.3,21.77 -43.8,40.11 -69.54,54.2zm-251.7 189.64l0 -93.74c0,-33.1 14.8,-62.5 37.66,-80.96 -13.28,-5.08 -26.12,-11.19 -38.42,-18.29 -23.64,-13.66 -45.2,-30.97 -64.05,-51.25l-1443.47 0c-14.83,0 -28.37,6.61 -38.24,17.21 -9.85,10.6 -15.99,25.16 -15.99,41.09 0,15.99 5.99,30.52 15.62,41.1l0.36 0.4c9.85,10.37 23.36,16.8 38.24,16.8 77.51,0 340.8,0.81 606.99,1.64 137.04,0.41 273.63,0.84 603.17,0.84 114.69,0 219.45,47.55 298.13,125.17zm1270.73 140.43l-716.34 0 0 338.6 720.24 0 0 -35.25c-24.75,-18.24 -41.02,-48.86 -41.02,-83.54l0 -139.29c0,-32.85 14.57,-62.02 37.12,-80.52zm605.38 87.44l764.63 0 0 -90.11 -764.63 0 0 90.11z"/>
  <polygon class="fil5" points="2881.14,2981.35 3008.53,2981.35 3008.53,3784.75 2881.14,3784.75 "/>
  <path class="fil5" d="M4655.81 2980.04l779.28 0c120.05,0 218.29,105.6 218.29,234.64l0 509.67c32.44,20.91 54.16,59.07 54.16,102.7 0,66.1 -49.85,119.68 -111.34,119.68 -61.49,0 -111.34,-53.58 -111.34,-119.68 0,-35.4 14.3,-67.22 37.03,-89.13l0 -186.79 -952.93 0 0 237.67 -131.46 0 0 -574.12c0,-129.06 98.22,-234.64 218.29,-234.64zm-86.83 424.13l952.93 0 0 -221.55c0,-39.02 -29.69,-70.94 -66,-70.94l-820.93 0c-36.31,0 -66,31.91 -66,70.94l0 221.55z"/>
  <path class="fil5" d="M3321.11 2975.07l1013.16 0 0 139.26 -1009.29 0c-42.76,0 -77.74,37.61 -77.74,83.58l0 373.83c0,45.98 34.98,83.59 77.74,83.59l802.77 0c42.77,0 77.76,-37.61 77.76,-83.59l0 -136.4 -109.96 0 0 -139.29 109.96 0 0 -0.05 127.27 0 0 282.37c0,118.92 -90.5,216.22 -201.14,216.22l-810.53 0c-110.64,0 -201.16,-97.3 -201.16,-216.22l0 -387.08c0,-118.92 90.52,-216.22 201.16,-216.22z"/>
  <path class="fil6" d="M1275.53 3262.56c-191.06,0 -347.38,-168.04 -347.38,-373.42l0 0c0,-205.39 156.32,-373.42 347.38,-373.42l1490.99 0c32.21,-51.48 86.9,-85.34 148.93,-85.34 99.07,0 179.35,86.32 179.35,192.79 0,106.47 -80.29,192.79 -179.35,192.79 -62.43,0 -117.4,-34.31 -149.53,-86.32l-1487.2 0c-81.61,0 -148.39,71.77 -148.39,159.5l0 0c0,87.73 66.78,159.5 148.39,159.5 404.22,0 808.46,2.48 1210.15,2.48 191.06,0 347.38,168.04 347.38,373.42l0 0c0,205.39 -156.32,373.42 -347.38,373.42l-1490.99 0c-32.21,51.48 -86.9,85.36 -148.93,85.36 -99.07,0 -179.35,-86.32 -179.35,-192.81 0,-106.47 80.29,-192.79 179.35,-192.79 62.43,0 117.4,34.31 149.53,86.34l1487.2 0c81.61,0 148.39,-71.79 148.39,-159.51l0 0c0,-87.73 -66.78,-159.5 -148.39,-159.5 -405.02,0 -807.14,-2.48 -1210.15,-2.48z"/>
  <path id="1" class="fil7" d="M1275.53 3262.56c-191.06,0 -347.38,-168.04 -347.38,-373.42l0 0c0,-205.39 156.32,-373.42 347.38,-373.42l1490.99 0c32.21,-51.48 86.9,-85.34 148.93,-85.34 99.07,0 179.35,86.32 179.35,192.79 0,106.47 -80.29,192.79 -179.35,192.79 -62.43,0 -117.4,-34.31 -149.53,-86.32l-1487.2 0c-81.61,0 -148.39,71.77 -148.39,159.5l0 0c0,87.73 66.78,159.5 148.39,159.5 404.22,0 808.46,2.48 1210.15,2.48 191.06,0 347.38,168.04 347.38,373.42l0 0c0,205.39 -156.32,373.42 -347.38,373.42l-1490.99 0c-32.21,51.48 -86.9,85.36 -148.93,85.36 -99.07,0 -179.35,-86.32 -179.35,-192.81 0,-106.47 80.29,-192.79 179.35,-192.79 62.43,0 117.4,34.31 149.53,86.34l1487.2 0c81.61,0 148.39,-71.79 148.39,-159.51l0 0c0,-87.73 -66.78,-159.5 -148.39,-159.5 -405.02,0 -807.14,-2.48 -1210.15,-2.48z"/>
  <g style="clip-path:url(#id0)">
   <g id="_1618101028448">
    <path id="2" class="fil5" d="M2759.64 2990.59l-420.81 410.27 -1825.21 0c0,0 4.99,778.45 107.75,767.94 102.75,-10.52 2236.13,142.02 2348.67,78.9 112.54,-63.12 259.32,-610.14 249.54,-641.71 -9.79,-31.56 -459.94,-615.4 -459.94,-615.4z"/>
   </g>
  </g>
 </g>
</svg>
